<svg width="370" height="427" viewBox="0 0 370 427" fill="none" xmlns="http://www.w3.org/2000/svg">
<path fill-rule="evenodd" clip-rule="evenodd" d="M269.079 48.8743C267.715 50.6189 265.531 51.3715 263.689 52.4148C250.689 59.7647 237.576 67.7083 224.54 75.3074C217.067 79.664 209.529 83.9327 202.039 88.2869C194.598 92.6118 187.215 97.0588 179.768 101.384C157.359 114.407 134.989 127.553 112.49 140.442C105 144.733 97.7093 149.412 89.9888 153.302C76.0744 145.085 62.0412 137.011 48.1462 128.64C41.2 124.457 34.028 120.611 27.0502 116.487C21.8369 113.403 16.5677 110.468 11.3422 107.282C9.67 106.261 7.78175 105.454 6.42259 103.979C6.89102 102.921 8.09969 102.608 9.00013 102.092C30.2612 89.8067 51.8985 77.504 73.111 64.9228C95.0517 51.9114 117.604 39.0028 139.804 26.1014C147.251 21.7741 154.84 17.6667 162.191 13.2392C169.526 8.81899 176.836 4.34261 184.224 0.142346C185.542 -0.607789 188.622 1.80633 190.202 2.73728C209.551 14.1775 228.96 25.1143 248.219 36.4836C255.25 40.635 262.405 44.4003 269.079 48.8743Z" fill="white"/>
<path fill-rule="evenodd" clip-rule="evenodd" d="M364.371 104.45C363.067 106.031 361.033 106.781 359.33 107.754C333.193 122.661 307.269 138.563 280.919 153.417C254.602 138.546 228.955 122.703 202.624 107.754C200.903 106.776 199.059 105.911 197.585 104.568C198.796 102.938 200.833 102.236 202.507 101.264C221.472 90.2417 240.751 79.4368 259.701 67.9893C264.669 64.9887 270.252 62.0444 275.409 59.0219C277.271 57.9296 279.076 56.747 280.802 55.8356C280.88 55.8356 280.96 55.8356 281.035 55.8356C307.252 70.699 333.088 86.3664 359.33 101.264C361.048 102.239 362.987 102.965 364.371 104.45Z" fill="white"/>
<path fill-rule="evenodd" clip-rule="evenodd" d="M180.708 114.126C181.671 114.644 181.293 115.917 181.293 116.721C181.293 146.819 181.171 177.218 181.176 206.872C181.176 209.007 181.506 211.72 181.057 213.007C180.657 214.163 177.518 215.543 176.019 216.428C151.265 231.018 126.429 245.356 101.474 259.733C99.7044 260.752 98.0346 262.152 95.9643 262.565C95.3284 246.729 95.7264 229.974 95.7289 213.242C95.7313 196.424 95.7313 179.86 95.9643 163.919C97.1438 162.147 99.2748 161.526 101.003 160.498C120.067 149.128 139.916 138.028 159.138 126.632C166.318 122.378 173.441 118.041 180.708 114.126Z" fill="#A087FF"/>
<path fill-rule="evenodd" clip-rule="evenodd" d="M0.677699 114.598C7.60454 118.207 15.3177 122.864 21.8902 126.751C41.2873 138.219 60.2014 149.072 79.5573 160.5C81.2538 161.502 83.2246 162.189 84.5958 163.686C84.6856 195.5 85.0424 229.606 84.3604 260.916C82.3144 260.483 80.6203 259.076 78.851 258.084C66.5045 251.164 54.1896 243.912 41.9305 236.726C27.9725 228.543 13.9683 220.423 0.206849 211.944C0.163162 180.4 0.124329 147.846 0.325775 114.952C0.391306 114.781 0.510232 114.664 0.677699 114.598Z" fill="white"/>
<path fill-rule="evenodd" clip-rule="evenodd" d="M192.872 115.204C195.947 116.345 200.566 119.441 203.423 121.102C224.067 133.117 244.739 144.997 265.308 157.209C268.677 159.208 272.269 160.935 275.385 163.344C275.536 196.426 275.553 228.406 275.152 260.811C274.074 261.055 273.281 260.087 272.456 259.63C259.442 252.442 246.467 244.659 233.542 237.092C221.429 229.999 209.464 222.959 197.209 215.971C195.542 215.021 193.726 214.09 192.404 212.665C192.265 180.17 192.375 148.449 192.523 115.553C192.586 115.387 192.702 115.267 192.872 115.204Z" fill="#A087FF"/>
<path fill-rule="evenodd" clip-rule="evenodd" d="M286.547 370.65C285.972 337.129 286.423 301.885 286.428 267.166C286.435 232.367 286.377 197.252 286.547 163.919C287.945 162.526 289.772 161.566 291.467 160.613C303.505 153.869 315.507 146.881 327.45 139.729C339.197 132.694 351.143 125.911 363.315 118.725C364.026 118.307 364.98 117.703 365.892 117.193C366.858 116.65 368.264 115.619 368.941 115.658C369.8 115.707 369.642 116.787 369.642 118.253C369.647 178.885 369.404 236.975 369.407 297.374C369.407 303.925 369.407 309.77 369.407 316.135C369.407 318.503 369.764 321.068 369.29 322.507C368.895 323.702 365.572 325.115 364.368 325.811C345.311 336.824 326.387 348.127 307.405 358.968C302.214 361.932 297.039 365.011 291.816 368.053C290.154 369.026 288.498 370.225 286.547 370.65Z" fill="white"/>
<path fill-rule="evenodd" clip-rule="evenodd" d="M267.91 271.298C267.502 272.26 266.364 272.595 265.565 273.067C245.855 284.722 225.759 296.253 205.789 307.876C199.954 311.272 193.675 314.732 187.387 318.261C186.331 318.854 185.503 319.651 184.809 319.678C183.542 319.724 180.897 317.633 179.533 316.846C160.806 306.041 142.173 295.107 123.393 284.397C118.286 281.487 113.315 278.438 108.155 275.43C106.546 274.491 104.675 273.634 103.466 272.126C106.682 269.812 110.221 267.933 113.662 265.991C130.863 256.278 148.234 246.125 165.352 236.019C172.164 231.998 179.174 228.232 185.744 223.866C187.215 223.424 189.904 225.39 191.605 226.461C203.124 233.732 215.779 240.298 227.237 247.347C234.05 251.538 241.061 255.283 247.746 259.147C252.905 262.128 257.934 265.021 263.102 268.114C264.728 269.086 266.638 269.802 267.91 271.298Z" fill="#A087FF"/>
<path fill-rule="evenodd" clip-rule="evenodd" d="M0.677743 226.106C0.755409 226.106 0.833075 226.106 0.913168 226.106C30.5258 243.575 60.6311 260.535 90.1053 278.142C104.957 286.789 119.876 295.437 134.761 304.101C147.748 311.661 160.548 319.431 173.79 326.757C175.63 327.775 177.611 328.741 179.067 330.297C179.232 362.265 179.341 395.564 178.948 426.7C177.836 426.825 176.79 426.019 175.9 425.52C161.874 417.682 147.891 409.223 133.94 401.096C119.038 392.412 104.175 383.591 89.285 374.9C67.0531 361.842 44.7726 348.537 22.3611 335.607C14.8833 331.292 7.29877 327.209 0.0928209 322.51C-0.0115429 289.751 -0.120761 258.372 0.325819 226.341C0.413193 226.231 0.539401 226.163 0.677743 226.106Z" fill="white"/>
<path fill-rule="evenodd" clip-rule="evenodd" d="M274.941 377.614C273.594 379.181 271.623 380.011 269.902 381.035C247.355 394.481 224.116 407.451 201.335 420.917C197.831 422.989 194.328 425.227 190.554 426.818C189.918 424.946 190.202 422.867 190.2 420.917C190.197 403.006 190.202 384.625 190.2 366.284C190.2 364.273 190.117 362.243 190.319 360.266C190.506 358.426 190.202 356.549 190.2 354.719C190.2 346.58 190.103 338.534 190.319 330.292C191.625 328.719 193.634 327.951 195.357 326.989C200.527 324.096 205.791 320.946 211.063 317.904C230.244 306.838 249.498 295.864 268.73 284.512C270.351 283.554 272.465 281.99 274.006 281.56C275.118 281.25 275.341 281.631 275.293 283.684C274.943 299.456 275.171 313.589 275.176 328.64C275.179 345.168 275.358 361.646 274.941 377.614Z" fill="white"/>
</svg>
