<svg width="1500" height="750" viewBox="0 0 1500 750" fill="none" xmlns="http://www.w3.org/2000/svg">
<path fill-rule="evenodd" clip-rule="evenodd" d="M319.079 210.874C317.715 212.619 315.531 213.371 313.689 214.415C300.689 221.765 287.576 229.708 274.54 237.307C267.067 241.664 259.529 245.933 252.039 250.287C244.598 254.612 237.215 259.059 229.768 263.384C207.359 276.407 184.989 289.553 162.49 302.442C155 306.733 147.709 311.412 139.989 315.302C126.074 307.085 112.041 299.011 98.1462 290.64C91.2 286.457 84.028 282.611 77.0502 278.487C71.8369 275.403 66.5677 272.468 61.3422 269.282C59.67 268.261 57.7817 267.454 56.4226 265.979C56.891 264.921 58.0997 264.608 59.0001 264.092C80.2612 251.807 101.898 239.504 123.111 226.923C145.052 213.911 167.604 201.003 189.804 188.101C197.25 183.774 204.84 179.667 212.191 175.239C219.526 170.819 226.836 166.343 234.224 162.142C235.542 161.392 238.622 163.806 240.202 164.737C259.551 176.177 278.96 187.114 298.219 198.484C305.25 202.635 312.405 206.4 319.079 210.874Z" fill="white"/>
<path fill-rule="evenodd" clip-rule="evenodd" d="M414.371 266.45C413.067 268.031 411.033 268.781 409.33 269.754C383.193 284.661 357.269 300.563 330.919 315.417C304.602 300.546 278.955 284.703 252.624 269.754C250.903 268.776 249.059 267.911 247.585 266.568C248.796 264.938 250.833 264.236 252.507 263.264C271.472 252.242 290.751 241.437 309.701 229.989C314.669 226.989 320.252 224.044 325.409 221.022C327.271 219.93 329.076 218.747 330.802 217.836C330.88 217.836 330.96 217.836 331.035 217.836C357.252 232.699 383.088 248.366 409.33 263.264C411.048 264.239 412.987 264.965 414.371 266.45Z" fill="white"/>
<path fill-rule="evenodd" clip-rule="evenodd" d="M230.708 276.126C231.671 276.644 231.293 277.917 231.293 278.721C231.293 308.819 231.171 339.218 231.176 368.872C231.176 371.007 231.506 373.72 231.057 375.007C230.657 376.163 227.518 377.543 226.019 378.428C201.265 393.018 176.429 407.356 151.474 421.733C149.704 422.752 148.035 424.152 145.964 424.565C145.328 408.729 145.726 391.974 145.729 375.242C145.731 358.424 145.731 341.86 145.964 325.919C147.144 324.147 149.275 323.526 151.003 322.498C170.067 311.128 189.916 300.028 209.138 288.632C216.318 284.378 223.441 280.041 230.708 276.126Z" fill="#A087FF"/>
<path fill-rule="evenodd" clip-rule="evenodd" d="M50.6777 276.598C57.6045 280.207 65.3177 284.864 71.8902 288.751C91.2873 300.219 110.201 311.072 129.557 322.5C131.254 323.502 133.225 324.189 134.596 325.686C134.686 357.5 135.042 391.606 134.36 422.916C132.314 422.483 130.62 421.076 128.851 420.084C116.505 413.164 104.19 405.912 91.9305 398.726C77.9725 390.543 63.9683 382.423 50.2068 373.944C50.1632 342.4 50.1243 309.846 50.3258 276.952C50.3913 276.781 50.5102 276.664 50.6777 276.598Z" fill="white"/>
<path fill-rule="evenodd" clip-rule="evenodd" d="M242.872 277.204C245.947 278.345 250.566 281.441 253.423 283.102C274.067 295.117 294.739 306.997 315.308 319.209C318.677 321.208 322.269 322.935 325.385 325.344C325.536 358.426 325.553 390.406 325.152 422.811C324.074 423.055 323.281 422.087 322.456 421.63C309.442 414.442 296.467 406.659 283.542 399.092C271.429 391.999 259.464 384.959 247.209 377.971C245.542 377.021 243.726 376.09 242.404 374.665C242.265 342.17 242.375 310.449 242.523 277.553C242.586 277.387 242.702 277.267 242.872 277.204Z" fill="#A087FF"/>
<path fill-rule="evenodd" clip-rule="evenodd" d="M336.547 532.65C335.972 499.129 336.423 463.885 336.428 429.166C336.435 394.367 336.377 359.252 336.547 325.919C337.945 324.526 339.772 323.566 341.467 322.613C353.505 315.869 365.507 308.881 377.45 301.729C389.197 294.694 401.143 287.911 413.315 280.725C414.026 280.307 414.98 279.703 415.892 279.193C416.858 278.65 418.264 277.619 418.941 277.658C419.8 277.707 419.642 278.787 419.642 280.253C419.647 340.885 419.404 398.975 419.407 459.374C419.407 465.925 419.407 471.77 419.407 478.135C419.407 480.503 419.764 483.068 419.29 484.507C418.895 485.702 415.572 487.115 414.368 487.811C395.311 498.824 376.387 510.127 357.405 520.968C352.214 523.932 347.039 527.011 341.816 530.053C340.154 531.026 338.498 532.225 336.547 532.65Z" fill="white"/>
<path fill-rule="evenodd" clip-rule="evenodd" d="M317.91 433.298C317.502 434.26 316.364 434.595 315.565 435.067C295.855 446.722 275.759 458.253 255.789 469.876C249.954 473.272 243.675 476.732 237.387 480.261C236.331 480.854 235.503 481.651 234.809 481.678C233.542 481.724 230.897 479.633 229.533 478.846C210.806 468.041 192.173 457.107 173.393 446.397C168.286 443.487 163.315 440.438 158.155 437.43C156.546 436.491 154.675 435.634 153.466 434.126C156.682 431.812 160.221 429.933 163.662 427.991C180.863 418.278 198.234 408.126 215.352 398.019C222.164 393.998 229.174 390.232 235.744 385.866C237.215 385.424 239.904 387.39 241.605 388.461C253.124 395.732 265.779 402.298 277.237 409.347C284.05 413.538 291.061 417.283 297.746 421.147C302.905 424.128 307.934 427.021 313.102 430.114C314.728 431.086 316.638 431.802 317.91 433.298Z" fill="#A087FF"/>
<path fill-rule="evenodd" clip-rule="evenodd" d="M50.6777 388.106C50.7554 388.106 50.8331 388.106 50.9132 388.106C80.5258 405.575 110.631 422.535 140.105 440.142C154.957 448.789 169.876 457.437 184.761 466.101C197.748 473.661 210.548 481.431 223.79 488.757C225.63 489.775 227.611 490.741 229.067 492.297C229.232 524.265 229.341 557.564 228.948 588.7C227.836 588.825 226.79 588.019 225.9 587.52C211.874 579.682 197.891 571.223 183.94 563.096C169.038 554.412 154.175 545.591 139.285 536.9C117.053 523.842 94.7726 510.537 72.3611 497.607C64.8833 493.292 57.2988 489.209 50.0928 484.51C49.9885 451.751 49.8792 420.372 50.3258 388.341C50.4132 388.231 50.5394 388.163 50.6777 388.106Z" fill="white"/>
<path fill-rule="evenodd" clip-rule="evenodd" d="M324.941 539.614C323.594 541.181 321.623 542.011 319.902 543.035C297.355 556.481 274.116 569.451 251.335 582.917C247.831 584.989 244.328 587.227 240.554 588.818C239.918 586.946 240.202 584.867 240.2 582.917C240.197 565.006 240.202 546.625 240.2 528.284C240.2 526.273 240.117 524.243 240.319 522.266C240.506 520.426 240.202 518.549 240.2 516.719C240.2 508.58 240.103 500.534 240.319 492.292C241.625 490.719 243.634 489.951 245.357 488.989C250.527 486.096 255.791 482.946 261.063 479.904C280.244 468.838 299.498 457.864 318.73 446.512C320.351 445.554 322.465 443.99 324.006 443.56C325.118 443.25 325.341 443.631 325.293 445.684C324.943 461.456 325.171 475.589 325.176 490.64C325.179 507.168 325.358 523.646 324.941 539.614Z" fill="white"/>
<path d="M638.489 513.91H599.675L536.095 416.322C526.114 425.193 530.92 420.758 520.939 429.999V513.91H488.409V262.546H520.939V386.38L564.928 347.566H614.092L560.862 394.512L638.489 513.91Z" fill="white"/>
<path d="M864.24 513.91H831.711V422.976C831.711 378.247 867.937 342.021 912.665 342.021C957.763 342.021 993.989 378.247 993.989 422.976H961.459C961.459 396.36 939.65 374.551 912.665 374.551C886.05 374.551 864.24 396.36 864.24 422.976V513.91Z" fill="white"/>
<path d="M1080.92 519.086C1051.35 519.086 1021.4 506.887 1008.47 479.163L1038.04 465.486C1045.06 480.642 1062.81 486.556 1080.55 486.556C1103.1 486.556 1125.65 476.945 1125.65 466.595C1125.65 442.937 1009.94 453.287 1009.94 394.512C1009.94 362.352 1046.54 342.021 1083.88 342.021C1112.71 342.021 1141.91 353.85 1154.85 381.944L1125.65 395.621C1118.25 380.465 1100.88 374.551 1083.88 374.551C1062.81 374.551 1042.47 383.423 1042.47 394.512C1042.47 419.279 1157.81 408.189 1157.81 466.595C1157.81 498.755 1119.73 519.086 1080.92 519.086Z" fill="white"/>
<path d="M1260.7 486.556H1261.07C1277.71 486.556 1293.6 479.163 1304.32 466.225L1332.42 482.859C1313.93 507.996 1288.06 519.086 1262.55 519.086C1216.71 519.086 1172.36 484.338 1172.36 430.738C1172.36 374.551 1217.45 342.021 1262.55 342.021C1296.93 342.021 1331.31 361.243 1344.98 402.645L1223.74 472.509C1234.09 481.75 1247.4 486.556 1260.7 486.556ZM1204.52 429.629C1204.52 434.804 1205.25 439.98 1206.73 445.155C1269.2 408.929 1237.78 427.042 1300.63 390.816C1289.17 379.356 1275.12 374.181 1261.81 374.181C1232.61 374.181 1204.52 397.839 1204.52 429.629Z" fill="white"/>
<path d="M1450 486.926V519.455C1400.84 519.455 1361.28 479.902 1361.28 430.738V262.546H1393.81V347.566H1437.43V380.096H1393.81V430.738C1393.81 461.789 1418.95 486.926 1450 486.926Z" fill="white"/>
<path d="M718.143 341.652C727.204 341.652 735.959 343.028 744.21 345.583L733.422 376.28C728.565 374.913 723.44 374.181 718.143 374.181C687.092 374.181 661.956 399.318 661.956 430.369C661.956 461.419 687.092 486.556 718.143 486.556C749.194 486.556 774.331 461.419 774.331 430.369C774.331 423.475 773.092 416.874 770.825 410.774L799.41 394.882C804.199 405.763 806.86 417.77 806.86 430.369C806.491 479.533 766.938 519.085 718.143 519.085C668.979 519.085 629.426 479.533 629.426 430.369C629.426 381.574 668.979 341.652 718.143 341.652Z" fill="white"/>
<path d="M791.054 392.977L768.71 405.232C763.861 392.361 752.993 382.387 739.474 378.632L747.906 354.959C767.218 360.859 782.992 374.904 791.054 392.977Z" fill="#A087FF"/>
<rect x="672.497" y="281.768" width="36.9654" height="36.9654" rx="10" fill="#A087FF"/>
<rect x="725.727" y="281.768" width="36.9654" height="36.9654" rx="10" fill="#A087FF"/>
</svg>
