<svg xmlns="http://www.w3.org/2000/svg" viewBox="0 0 800 360" preserveAspectRatio="xMidYMid slice">
  <defs>
    <linearGradient id="sky2" x1="0" x2="0" y1="0" y2="1">
      <stop offset="0%" stop-color="#0C1E3D"/>
      <stop offset="60%" stop-color="#1E3A8A"/>
      <stop offset="100%" stop-color="#60A5FA"/>
    </linearGradient>
  </defs>
  <rect width="800" height="360" fill="url(#sky2)"/>
  <circle cx="640" cy="90" r="40" fill="#F1F5F9" opacity="0.95"/>
  <circle cx="650" cy="80" r="38" fill="#0C1E3D"/>
  <g fill="#fff" opacity="0.5">
    <circle cx="120" cy="60" r="1.5"/>
    <circle cx="200" cy="40" r="1"/>
    <circle cx="320" cy="80" r="1.2"/>
    <circle cx="480" cy="50" r="1.5"/>
    <circle cx="560" cy="100" r="1"/>
    <circle cx="720" cy="160" r="1.3"/>
  </g>
  <path d="M0 280 L120 180 L220 240 L340 140 L460 220 L580 160 L700 230 L800 200 L800 360 L0 360 Z" fill="#1E293B"/>
  <path d="M0 320 L100 250 L200 290 L320 230 L440 280 L560 240 L680 290 L800 270 L800 360 L0 360 Z" fill="#0F172A"/>
  <g fill="#F1F5F9" opacity="0.85">
    <path d="M340 140 L360 165 L320 165 Z"/>
    <path d="M580 160 L600 185 L560 185 Z"/>
  </g>
</svg>
