<svg xmlns="http://www.w3.org/2000/svg" viewBox="0 0 800 360" preserveAspectRatio="xMidYMid slice">
  <defs>
    <linearGradient id="sky5" x1="0" x2="0" y1="0" y2="1">
      <stop offset="0%" stop-color="#082F49"/>
      <stop offset="50%" stop-color="#0369A1"/>
      <stop offset="100%" stop-color="#06B6D4"/>
    </linearGradient>
    <linearGradient id="water" x1="0" x2="0" y1="0" y2="1">
      <stop offset="0%" stop-color="#0E7490"/>
      <stop offset="100%" stop-color="#155E75"/>
    </linearGradient>
  </defs>
  <rect width="800" height="200" fill="url(#sky5)"/>
  <rect y="200" width="800" height="160" fill="url(#water)"/>
  <circle cx="600" cy="80" r="38" fill="#FCD34D" opacity="0.95"/>
  <g stroke="#67E8F9" stroke-width="1.5" fill="none" opacity="0.5">
    <path d="M0 230 Q100 220 200 230 T400 230 T600 230 T800 230"/>
    <path d="M0 260 Q100 250 200 260 T400 260 T600 260 T800 260"/>
    <path d="M0 290 Q100 280 200 290 T400 290 T600 290 T800 290"/>
    <path d="M0 320 Q100 310 200 320 T400 320 T600 320 T800 320"/>
  </g>
  <g fill="#FCD34D" opacity="0.4">
    <ellipse cx="600" cy="240" rx="60" ry="3"/>
    <ellipse cx="600" cy="270" rx="50" ry="2.5"/>
  </g>
</svg>
