<svg xmlns="http://www.w3.org/2000/svg" viewBox="0 0 800 360" preserveAspectRatio="xMidYMid slice">
  <defs>
    <linearGradient id="sky" x1="0" x2="0" y1="0" y2="1">
      <stop offset="0%" stop-color="#1A0033"/>
      <stop offset="35%" stop-color="#7C2D12"/>
      <stop offset="65%" stop-color="#EA580C"/>
      <stop offset="100%" stop-color="#FBBF24"/>
    </linearGradient>
    <radialGradient id="sun" cx="50%" cy="70%" r="20%">
      <stop offset="0%" stop-color="#FEF3C7"/>
      <stop offset="60%" stop-color="#F59E0B"/>
      <stop offset="100%" stop-color="#EA580C" stop-opacity="0"/>
    </radialGradient>
  </defs>
  <rect width="800" height="360" fill="url(#sky)"/>
  <circle cx="400" cy="250" r="90" fill="url(#sun)"/>
  <path d="M0 280 Q200 250 400 270 T800 260 L800 360 L0 360 Z" fill="#7F1D1D" opacity="0.85"/>
  <path d="M0 310 Q200 290 400 305 T800 300 L800 360 L0 360 Z" fill="#450A0A" opacity="0.9"/>
  <g transform="translate(170 230)" fill="#0F0014" opacity="0.95">
    <ellipse cx="0" cy="40" rx="22" ry="6"/>
    <path d="M-8 38 L-8 12 L-12 -2 L-6 -10 L0 -16 L6 -10 L12 -2 L8 12 L8 38 Z"/>
    <circle cx="0" cy="-22" r="8"/>
    <line x1="14" y1="-8" x2="46" y2="-30" stroke="#0F0014" stroke-width="3"/>
  </g>
  <g fill="#0F0014" opacity="0.6">
    <path d="M580 110 q8 -6 16 0 q8 -6 16 0" stroke="#0F0014" stroke-width="1.5" fill="none"/>
    <path d="M620 130 q6 -4 12 0 q6 -4 12 0" stroke="#0F0014" stroke-width="1.2" fill="none"/>
    <path d="M660 100 q5 -4 10 0 q5 -4 10 0" stroke="#0F0014" stroke-width="1.2" fill="none"/>
  </g>
</svg>
